<?xml version="1.0" encoding="UTF-8"?>
<svg width="84px" height="46px" viewBox="0 0 84 46" version="1.1" xmlns="http://www.w3.org/2000/svg" xmlns:xlink="http://www.w3.org/1999/xlink">
    <!-- Generator: Sketch 61 (89581) - https://sketch.com -->
    <title>Eli_Lilly_and_Company Copy</title>
    <desc>Created with Sketch.</desc>
    <defs>
        <rect id="path-1" x="0.00157407407" y="8.17124146e-14" width="83.7863889" height="45.6701852"></rect>
    </defs>
    <g id="ADA-Site-Header" stroke="none" stroke-width="1" fill="none" fill-rule="evenodd">
        <g id="ADA_Gov-Shutdown-Landing-Page_mh_v3" transform="translate(-678.000000, -1864.000000)">
            <g id="Group-13" transform="translate(0.000000, 1694.000000)">
                <g id="Eli_Lilly_and_Company-Copy" transform="translate(678.000000, 170.000000)">
                    <mask id="mask-2" fill="white">
                        <use xlink:href="#path-1"></use>
                    </mask>
                    <g id="SVGID_1_"></g>
                    <path d="M57.8299074,26.6600926 C58.3147222,26.3137963 58.840463,25.9108333 59.33,25.5251852 C63.1014815,22.5076852 65.982037,19.2005556 66.5534259,17.3714815 C66.5707407,17.3116667 66.6211111,17.1416667 66.6211111,17.0078704 C66.6211111,16.8189815 66.5313889,16.6867593 66.3598148,16.6867593 C64.6283333,16.6867593 59.0734259,22.2180556 57.7291667,26.6962963 L57.7291667,26.712037 L57.8299074,26.6600926 Z M43.9056481,26.0241667 C49.1567593,22.0575 54.6738889,16.2822222 55.2625926,13.9116667 C55.2799074,13.834537 55.2972222,13.7589815 55.2957479,13.6865741 C55.2877778,13.5291667 55.2027778,13.3906481 55.0044444,13.3906481 C53.3422222,13.3906481 45.6465741,20.4881481 43.9056481,26.0241667 L43.9056481,26.0241667 Z M11.6638889,29.5107407 C10.2771296,28.5489815 8.13324074,27.7084259 6.21759259,27.7084259 C4.36018519,27.7084259 3.17018519,28.4387963 3.17018519,29.3596296 C3.17018519,30.4158333 4.61203704,30.8786111 6.22703704,30.8786111 C8.18518519,30.8786111 9.96231481,30.3497222 11.6638889,29.5107407 L11.6638889,29.5107407 Z M27.7493519,17.0676852 C31.514537,15.8603704 35.084537,13.3371296 37.7494444,10.7021296 C40.2097222,8.26388889 42.180463,5.36916667 42.180463,3.93518519 C42.180463,3.60777778 41.9475,3.41101852 41.6484259,3.41101852 C40.5103704,3.41101852 38.3475926,4.9237037 35.4371296,7.83731481 C33.172037,10.1087037 30.5323148,13.2096296 27.7493519,17.0676852 L27.7493519,17.0676852 Z M83.7863889,26.1689815 C80.5532407,29.3863889 70.4791667,38.229537 67.8126852,45.6701852 L64.5102778,44.8186111 C65.5900926,41.7365741 68.8405556,36.9435185 72.4625,33.2460185 C71.6912037,33.5356481 70.8884259,33.6442593 70.2430556,33.6442593 C69.2639815,33.6442593 68.5037037,33.3483333 68.0456481,32.7942593 C67.7182407,32.3944444 67.5513889,31.8734259 67.5513889,31.2532407 C67.5513889,31.1178704 67.5608333,30.9825 67.5797222,30.8298148 C64.3985185,32.7675 61.8406481,33.6426852 59.3347222,33.6426852 C57.3844444,33.6426852 55.7426852,32.7926852 54.9824074,31.302037 C51.8248148,32.8682407 48.7962963,33.6426852 46.2651852,33.6426852 C43.9087963,33.6426852 42.0088889,32.7092593 41.1368519,31.0092593 C37.9446296,32.8037037 35.2277778,33.6426852 33.0665741,33.6426852 C31.8230556,33.6426852 30.8361111,33.297963 30.2033333,32.6447222 C29.7374074,32.1630556 29.4918519,31.5161111 29.4556481,30.7684259 C27.4093519,32.1174074 24.4186111,33.6426852 21.3538889,33.6426852 C18.2183333,33.6426852 16.1153704,32.5660185 14.4830556,31.4987963 C11.879537,32.9406481 9.01472222,33.6426852 5.9862037,33.6426852 C3.6975,33.6426852 0.00471618072,32.6903704 0.00471618072,29.4084259 C1.66955165e-12,26.7592593 2.76407407,24.9648148 6.46314815,24.9648148 C9.60814815,24.9648148 12.6382407,26.2901852 14.5397222,27.6659259 C16.3436111,26.2287963 18.2372222,24.2187037 20.4708333,21.3775 C19.9797222,21.4058333 19.4996296,21.4184259 19.0274074,21.4184259 C14.7506481,21.4184259 11.1790741,20.1575926 9.2287963,17.9507407 C8.17574074,16.7575926 7.67675926,15.3582407 7.67675926,13.8518519 C7.67675926,7.90185185 15.192963,3.28509259 21.7678704,2.60509259 C22.2023148,3.59046296 22.589537,4.34916667 22.9909259,5.25111111 C16.4962963,6.00666667 11.0862037,9.85055556 11.0862037,13.6078704 C11.0862037,16.0775926 13.8612963,18.5583333 19.7530556,18.5583333 C20.762037,18.5583333 21.7757407,18.4607407 22.7737037,18.3237963 C27.9744444,11.1460185 35.9424074,8.17124146e-14 42.8006481,8.17124146e-14 C44.8296296,8.17124146e-14 45.8905556,1.23407407 45.8905556,2.8837037 C45.8905556,6.27740741 42.9706481,9.93083333 41.0691667,11.837037 C38.0815741,14.8387963 32.6762037,19.3060185 25.1285185,20.7856481 C22.1928704,24.8703704 19.7798148,27.5793519 17.3651852,29.5359259 C18.8275,30.324537 20.2000926,30.8093519 21.8355556,30.8093519 C25.8982407,30.8093519 29.8397222,27.0913889 32.917037,23.9385185 L33.0256481,23.8330556 L35.424537,25.7093519 L35.3143519,25.8415741 C33.9543519,27.4014815 32.6998148,29.0511111 32.6998148,29.9750926 C32.6998148,30.6755556 33.2932407,30.8140741 33.8016667,30.8140741 C35.3568519,30.8140741 37.7557407,29.8066667 40.5780556,28.072037 L40.5780556,28.0484259 C40.8897222,21.0752778 50.4065741,10.4109259 56.1834259,10.4109259 C57.8141667,10.4109259 58.7507407,11.2231481 58.7507407,12.6461111 C58.7507407,16.1421296 52.720463,23.6362963 43.9481481,29.3722222 L43.9481481,29.3769444 C44.4014815,30.3528704 45.4466667,30.8235185 47.2206481,30.8235185 C48.6042593,30.8235185 51.3116667,30.2064815 54.5290741,28.5253704 C54.9005556,24.9128704 56.9484259,21.0327778 59.5456481,18.2671296 C62.1507407,15.4983333 65.0706481,13.6991667 67.595463,13.6991667 C69.1522222,13.6991667 70.0714815,14.555463 70.0714815,15.9012963 C70.0714815,18.9502778 66.5313889,24.1636111 58.0030556,29.6225 C58.3808333,30.3528704 59.1127778,30.8140741 60.2524074,30.8140741 C62.792963,30.8140741 67.2680556,28.1035185 70.7530556,24.7712037 L73.2558333,26.7136111 C72.187037,28.0106481 71.1056481,29.4351852 71.1402778,30.2552778 C71.1497222,30.5212963 71.3291667,30.7007407 71.7494444,30.7007407 C74.3183333,30.7007407 78.3621296,27.3086111 81.3937963,24.3147222 L83.7863889,26.1689815 L83.7863889,26.1689815 Z M37.2866667,19.1753704 C38.4215741,19.1753704 39.3376852,20.0962037 39.3376852,21.229537 C39.3376852,22.3644444 38.4215741,23.2837037 37.2866667,23.2837037 C36.147037,23.2837037 35.2277778,22.3644444 35.2277778,21.229537 C35.2293519,20.0962037 36.1486111,19.1753704 37.2866667,19.1753704 L37.2866667,19.1753704 Z" id="Shape" fill="#ED1D24" fill-rule="nonzero" mask="url(#mask-2)"></path>
                </g>
            </g>
        </g>
    </g>
</svg>