<svg width="169" height="47" viewBox="0 0 169 47" xmlns="http://www.w3.org/2000/svg"><title>Group</title><desc>Created with Sketch.</desc><g fill="#fff"><path d="M166.498 42.625c1.043 0 1.85.832 1.85 1.909 0 1.101-.808 1.932-1.85 1.932-1.054 0-1.862-.831-1.862-1.932 0-1.077.808-1.909 1.862-1.909v-.331c-1.235 0-2.272.969-2.272 2.24 0 1.294 1.037 2.264 2.272 2.264 1.23 0 2.26-.97 2.26-2.264 0-1.271-1.03-2.24-2.26-2.24v.331"/><path d="M166.028 43.558h.543c.277 0 .578.055.578.404 0 .415-.331.434-.692.434h-.428v.331h.434l.717 1.132h.44l-.754-1.163c.392-.042.693-.241.693-.717 0-.505-.296-.752-.922-.752h-1.019v2.631h.41v-2.3"/><path d="M100.632 38.745c1.812 0 2.354 1.549 2.354 3.098 0 1.53-.542 3.079-2.354 3.079-1.794 0-2.335-1.549-2.335-3.079 0-1.549.542-3.098 2.335-3.098v-1.996c-3.027 0-4.987 2.015-4.987 5.094 0 3.06 1.961 5.075 4.987 5.075 3.045 0 5.006-2.015 5.006-5.075 0-3.079-1.961-5.094-5.006-5.094v1.996"/><path d="M130.027 39.535c0-2.314-2.317-2.742-4.24-2.742-2.167 0-4.39.746-4.539 3.228h2.652c.093-1.045.747-1.455 1.756-1.455.933 0 1.718.168 1.718 1.306 0 1.082-1.512 1.025-3.138 1.268-1.644.224-3.288.747-3.288 2.929 0 1.979 1.458 2.893 3.288 2.893 1.177 0 2.41-.317 3.25-1.194.018.317.093.634.187.933h2.69c-.243-.392-.336-1.269-.336-2.147l-2.653-1.586c0 .578-.075 2.221-2.148 2.221-.859 0-1.625-.243-1.625-1.232 0-.971.747-1.251 1.569-1.418.822-.15 1.756-.169 2.204-.56v.989l2.653 1.586v-5.019"/><path d="M89.78 22.82c0-2.315-2.316-2.743-4.241-2.743-2.166 0-4.389.746-4.539 3.228h2.653c.093-1.045.747-1.455 1.755-1.455.934 0 1.719.168 1.719 1.306 0 1.082-1.513 1.026-3.138 1.268-1.644.224-3.288.747-3.288 2.93 0 1.978 1.458 2.892 3.288 2.892 1.177 0 2.409-.317 3.25-1.194.018.317.093.635.186.933h2.691c-.243-.392-.336-1.269-.336-2.146l-2.653-1.586c0 .578-.075 2.221-2.148 2.221-.859 0-1.625-.243-1.625-1.232 0-.97.747-1.25 1.569-1.418.821-.15 1.755-.168 2.204-.56v.989l2.653 1.586v-5.019"/><path d="M127.074 25.751c.187-2.967-1.401-5.728-4.689-5.728-2.933 0-4.931 2.202-4.931 5.094 0 2.985 1.886 5.075 4.931 5.075 2.186 0 3.774-.971 4.521-3.247h-2.334c-.168.598-1.027 1.25-2.092 1.25-1.476 0-2.298-.764-2.373-2.444v-1.68c.037-.746.523-2.052 2.205-2.052 1.289 0 1.868.709 2.111 2.052h-4.315v1.68h6.967"/><path d="M111.362 25.751c.187-2.967-1.401-5.728-4.689-5.728-2.933 0-4.931 2.202-4.931 5.094 0 2.985 1.886 5.075 4.931 5.075 2.186 0 3.774-.971 4.521-3.247h-2.334c-.169.598-1.027 1.25-2.092 1.25-1.476 0-2.298-.764-2.373-2.444v-1.68c.037-.746.522-2.052 2.205-2.052 1.289 0 1.868.709 2.111 2.052h-4.315v1.68h6.967"/><path d="M71.471 10.356l1.009 2.967h3.045l-4.987-13.323h-3.008l-5.062 13.323h2.97l1.047-2.967.766-2.183 1.737-4.889h.037l1.681 4.889h-3.456l-.766 2.183h4.987"/><path d="M76.324 3.677h2.503v1.305h.037c.691-.989 1.7-1.567 2.952-1.567 1.214 0 2.297.448 2.82 1.605.561-.839 1.569-1.605 2.914-1.605 2.055 0 3.531.952 3.531 3.452v6.456h-2.653v-5.467c0-1.287-.112-2.351-1.625-2.351-1.495 0-1.775 1.232-1.775 2.444v5.374h-2.652v-5.411c0-1.12.075-2.408-1.606-2.408-.522 0-1.793.336-1.793 2.221v5.598h-2.653v-9.647"/><path d="M101.57 9.143c.186-2.967-1.401-5.728-4.689-5.728-2.933 0-4.932 2.202-4.932 5.094 0 2.986 1.887 5.076 4.932 5.076 2.185 0 3.774-.971 4.521-3.248h-2.335c-.168.598-1.027 1.251-2.092 1.251-1.476 0-2.298-.765-2.373-2.445v-1.679c.037-.747.523-2.053 2.205-2.053 1.289 0 1.869.709 2.112 2.053h-4.316v1.679h6.968"/><path d="M102.585 3.677h2.522v1.791h.037c.486-1.212 1.794-2.053 3.082-2.053.187 0 .411.037.579.093v2.463c-.243-.056-.635-.093-.953-.093-1.943 0-2.615 1.399-2.615 3.097v4.348h-2.653v-9.647"/><path d="M109.624 13.324h2.652v-9.647h-2.652z"/><path d="M109.624 2.183h2.652v-2.183h-2.652z"/><path d="M120.29 7.072c-.168-1.082-.859-1.66-1.961-1.66-1.701 0-2.26 1.716-2.26 3.135 0 1.381.542 3.042 2.204 3.042 1.233 0 1.943-.784 2.112-1.96h2.559c-.336 2.556-2.112 3.957-4.651 3.957-2.914 0-4.876-2.053-4.876-4.946 0-3.004 1.794-5.225 4.932-5.225 2.28 0 4.371 1.194 4.54 3.657h-2.597"/><path d="M132.503 6.158c0-2.314-2.317-2.743-4.241-2.743-2.166 0-4.389.746-4.539 3.229h2.653c.093-1.046.747-1.456 1.755-1.456.934 0 1.719.168 1.719 1.306 0 1.082-1.513 1.026-3.138 1.269-1.644.223-3.288.746-3.288 2.929 0 1.978 1.457 2.893 3.288 2.893 1.176 0 2.409-.317 3.25-1.194.018.317.093.634.186.932h2.691c-.243-.391-.336-1.268-.336-2.146l-2.653-1.586c0 .578-.075 2.22-2.148 2.22-.859 0-1.626-.242-1.626-1.231 0-.971.747-1.251 1.569-1.419.822-.15 1.756-.168 2.205-.56v.99l2.653 1.586v-5.019"/><path d="M134.256 3.677h2.522v1.343h.056c.673-1.082 1.831-1.605 2.952-1.605 2.821 0 3.531 1.586 3.531 3.975v5.934h-2.652v-5.448c0-1.586-.468-2.37-1.701-2.37-1.438 0-2.055.803-2.055 2.761v5.057h-2.652v-9.647"/><path d="M64.112 16.629h5.754c3.456 0 6.052 2.165 6.052 6.587 0 3.863-1.98 6.736-6.052 6.736h-5.754l2.933-2.463h2.616c1.701 0 3.325-1.045 3.325-3.993 0-2.687-.934-4.404-3.849-4.404h-2.092v8.397l-2.933 2.463v-13.323"/><path d="M76.996 29.953h2.652v-9.647h-2.652z"/><path d="M76.996 18.812h2.652v-2.183h-2.652z"/><path d="M98.561 25.138c0-1.623-.691-3.097-2.26-3.097s-2.26 1.474-2.26 3.097c0 1.605.691 3.079 2.26 3.079s2.26-1.474 2.26-3.079l2.653-.018c0 3.545-2.074 5.094-3.998 5.094-1.419 0-2.595-.43-3.175-1.493h-.037v1.232h-2.522v-13.323h2.653v4.852h.036c.654-.989 1.849-1.437 3.045-1.437 1.924 0 3.998 1.549 3.998 5.076l-2.653.018"/><path d="M115.471 20.306h1.943v1.773h-1.943v4.777c0 .895.224 1.119 1.121 1.119.28 0 .542-.019.822-.075v2.072c-.448.074-1.027.093-1.551.093-1.625 0-3.045-.373-3.045-2.295v-5.691h-1.606v-1.773h1.606v-2.893h2.653v2.893"/><path d="M130.253 26.818c.019 1.157.99 1.623 2.036 1.623.766 0 1.738-.298 1.738-1.231 0-.803-1.102-1.083-3.007-1.493-1.533-.336-3.064-.877-3.064-2.574 0-2.463 2.13-3.098 4.204-3.098 2.111 0 4.053.709 4.259 3.079h-2.523c-.074-1.026-.858-1.306-1.812-1.306-.597 0-1.475.112-1.475.896 0 .952 1.494 1.082 3.007 1.437 1.551.355 3.063.914 3.063 2.706 0 2.537-2.204 3.359-4.408 3.359-2.242 0-4.427-.84-4.539-3.396h2.522"/><path d="M71.396 43.69l1.008 2.968h3.045l-4.987-13.323h-3.007l-5.062 13.323h2.97l1.046-2.968.766-2.182 1.737-4.89h.037l1.681 4.89h-3.456l-.766 2.182h4.988"/><path d="M78.38 43.522c.018 1.158.99 1.624 2.036 1.624.766 0 1.737-.298 1.737-1.232 0-.802-1.101-1.082-3.007-1.492-1.532-.337-3.063-.878-3.063-2.575 0-2.463 2.13-3.097 4.203-3.097 2.111 0 4.054.709 4.26 3.078h-2.523c-.075-1.025-.859-1.305-1.812-1.305-.597 0-1.476.111-1.476.896 0 .952 1.495 1.082 3.007 1.436 1.551.355 3.064.915 3.064 2.706 0 2.538-2.205 3.359-4.408 3.359-2.242 0-4.428-.839-4.539-3.396h2.522"/><path d="M88.408 43.522c.019 1.158.99 1.624 2.037 1.624.765 0 1.737-.298 1.737-1.232 0-.802-1.102-1.082-3.007-1.492-1.532-.337-3.064-.878-3.064-2.575 0-2.463 2.13-3.097 4.204-3.097 2.111 0 4.053.709 4.259 3.078h-2.522c-.075-1.025-.859-1.305-1.812-1.305-.598 0-1.476.111-1.476.896 0 .952 1.494 1.082 3.007 1.436 1.551.355 3.064.915 3.064 2.706 0 2.538-2.205 3.359-4.409 3.359-2.241 0-4.427-.839-4.539-3.396h2.522"/><path d="M113.541 40.407c-.168-1.083-.859-1.661-1.961-1.661-1.701 0-2.26 1.717-2.26 3.135 0 1.381.542 3.043 2.204 3.043 1.233 0 1.944-.785 2.112-1.96h2.559c-.337 2.556-2.112 3.956-4.652 3.956-2.913 0-4.875-2.053-4.875-4.945 0-3.004 1.794-5.225 4.932-5.225 2.28 0 4.371 1.194 4.539 3.657h-2.596"/><path d="M117.311 46.658h2.653v-9.647h-2.653z"/><path d="M117.311 35.518h2.653v-2.183h-2.653z"/><path d="M134.632 37.01h1.943v1.773h-1.943v4.777c0 .896.224 1.12 1.121 1.12.28 0 .542-.019.822-.075v2.071c-.448.075-1.027.093-1.551.093-1.625 0-3.045-.373-3.045-2.294v-5.692h-1.606v-1.773h1.606v-2.892h2.653v2.892"/><path d="M137.841 46.658h2.653v-9.647h-2.653z"/><path d="M137.841 35.518h2.653v-2.183h-2.653z"/><path d="M146.744 38.745c1.812 0 2.354 1.549 2.354 3.098 0 1.53-.542 3.079-2.354 3.079-1.794 0-2.335-1.549-2.335-3.079 0-1.549.542-3.098 2.335-3.098v-1.996c-3.027 0-4.987 2.015-4.987 5.094 0 3.06 1.961 5.075 4.987 5.075 3.045 0 5.006-2.015 5.006-5.075 0-3.079-1.961-5.094-5.006-5.094v1.996"/><path d="M153.014 37.01h2.522v1.344h.057c.672-1.083 1.83-1.605 2.951-1.605 2.821 0 3.531 1.586 3.531 3.974v5.934h-2.652v-5.449c0-1.586-.467-2.37-1.701-2.37-1.437 0-2.054.803-2.054 2.762v5.057h-2.653v-9.647"/><path d="M57.594 42.625c1.043 0 1.85.832 1.85 1.909 0 1.101-.808 1.932-1.85 1.932-1.054 0-1.862-.831-1.862-1.932 0-1.077.808-1.909 1.862-1.909v-.331c-1.236 0-2.272.969-2.272 2.24 0 1.294 1.036 2.264 2.272 2.264 1.229 0 2.26-.97 2.26-2.264 0-1.271-1.031-2.24-2.26-2.24v.331"/><path d="M57.124 43.558h.543c.278 0 .579.055.579.404 0 .415-.331.434-.693.434h-.428v.331h.434l.717 1.132h.44l-.753-1.163c.392-.042.692-.241.692-.717 0-.505-.295-.752-.922-.752h-1.018v2.631h.409v-2.3"/><path d="M26.967 20.773h-11.901l-15.066 26.034h29.829l6.177-10.233h-18.078l9.039-15.802"/><path d="M21.091 10.389l20.791 36.418h12.053l-26.968-46.502-5.876 10.084"/></g></svg>