<?xml version="1.0" encoding="UTF-8"?>
<svg width="84px" height="64px" viewBox="0 0 84 64" version="1.1" xmlns="http://www.w3.org/2000/svg" xmlns:xlink="http://www.w3.org/1999/xlink">
    <!-- Generator: Sketch 61 (89581) - https://sketch.com -->
    <title>Novo_Nordisk 2 Copy</title>
    <desc>Created with Sketch.</desc>
    <g id="ADA-Site-Header" stroke="none" stroke-width="1" fill="none" fill-rule="evenodd">
        <g id="ADA_Gov-Shutdown-Landing-Page_mh_v3" transform="translate(-678.000000, -2156.000000)">
            <g id="Group-13" transform="translate(0.000000, 1694.000000)">
                <g id="Novo_Nordisk-2-Copy" transform="translate(678.000000, 462.000000)">
                    <g id="Novo_Nordisk">
                        <path d="M32.3236885,13.6932174 C32.7347541,13.4205217 33.0343443,13.1784348 33.197377,13.0476522 C33.9818852,12.4118261 34.2480328,12.7749565 33.5415574,13.9186087 C32.6177049,15.4142609 31.135082,16.352 29.362623,17.2354783 C29.0059016,17.4135652 28.5920492,17.5805217 29.4030328,17.9631304 C30.0844262,18.2845217 31.7621311,18.9662609 33.2433607,19.3836522 C34.0961475,19.6243478 39.8566393,21.6278261 45.3356557,21.6069565 C49.3139344,21.5916522 52.8797541,21.0796522 54.9281148,20.9071304 C56.4664754,20.7791304 59.8107377,20.4841739 61.4745082,23.4685217 C62.8651639,25.9631304 62.5711475,33.7586087 62.6436066,35.5325217 C62.6937705,36.8125217 62.6436066,47.2208696 62.6338525,48.1335652 C62.6254918,48.7485217 62.5809016,49.2187826 62.1210656,49.2702609 C61.7016393,49.3161739 60.4990984,49.2966957 60.2789344,49.2966957 C60.1521311,49.2966957 59.6992623,49.2869565 59.3146721,49.2869565 C58.6388525,49.2869565 58.6527869,49.6027826 58.6527869,49.7850435 C58.6527869,50.1704348 58.7977049,50.6003478 57.9268033,50.6309565 C57.327623,50.6490435 55.4004918,50.6309565 55.1510656,50.6309565 C54.7288525,50.6309565 54.497541,50.1133913 54.8681967,49.4483478 C58.4047541,43.072 58.1497541,38.221913 56.062377,35.5102609 C55.917459,36.0083478 55.7864754,36.4187826 55.6819672,36.9794783 C55.4088525,38.4570435 55.105082,39.1081739 54.7804098,39.3683478 C51.0696721,42.3638261 49.2860656,46.7965217 48.4221311,49.1046957 C48.2395902,49.5874783 47.8828689,49.4066087 47.7212295,49.6194783 C47.4536885,49.9631304 48.0277869,50.5906087 46.932541,50.6267826 C46.4922131,50.6406957 44.3504918,50.6351304 43.9213115,50.6365217 C43.4182787,50.6389952 43.1340164,50.0215652 43.6384426,49.4024348 C44.7796721,48.0111304 51.2772951,41.8768696 50.9540164,35.4935652 C50.940082,35.2208696 50.757541,33.8643478 50.4858197,33.6083478 C50.4259016,33.5513043 49.3445902,32.6135652 47.0036066,34.5391304 C46.7388525,34.7603478 46.7040164,34.6768696 46.3681967,34.4876522 C46.0045082,34.2831304 43.1702459,33.2646957 41.1009836,33.8810435 C39.7883607,34.2692174 38.2416393,35.8914783 38.832459,38.4570435 C39.6643443,42.0827826 41.5231967,45.1937391 42.2422131,48.8528696 C42.3327869,49.5109565 41.8743443,49.344 41.6806557,49.5930435 C41.4145082,49.938087 41.9802459,50.6212174 40.8362295,50.6226087 C40.4781148,50.6253913 37.947623,50.6226087 37.947623,50.6226087 C37.4083607,50.6434783 37.119918,50.4013913 37.4738525,49.2772174 C37.5797541,48.9446957 37.680082,48.3909565 37.8110656,47.2194783 C37.9322951,46.1384348 37.8110656,45.010087 37.6062295,43.7412174 C36.937377,39.5923478 34.6786066,37.5526957 32.7946721,36.3241739 C31.5210656,37.1325217 29.4671311,43.3850435 28.8832787,47.5853913 C28.7885246,48.2643478 28.7745902,48.4215652 28.7620492,48.5996522 C28.6812295,49.6514783 28.0555738,49.2730435 27.8786066,49.5707826 C27.6333607,49.9853913 28.1238525,50.6309565 26.982623,50.6309565 C25.6198361,50.6309565 24.8896721,50.6389952 24.2612295,50.6323478 C23.7080328,50.6267826 23.6244262,50.0215652 24.0354918,49.2841739 C25.7633607,46.1829565 28.4833607,41.394087 28.4318033,36.2253913 C28.4290164,35.6271304 28.4331967,33.8504348 27.6054918,32.8653913 C25.7494262,30.6504348 24.7085246,27.9874783 23.7568033,26.2817391 C23.0977049,25.1046957 22.1348361,24.832 21.4994262,24.6316522 C20.8654098,24.434087 20.3247541,24.7151304 19.6127049,24.3130435 C19.4148361,24.2031304 18.9020492,23.5186087 18.4254918,22.9954783 C18.0297541,22.56 17.7440984,21.9311304 18.2122951,21.3398261 C19.0358197,20.301913 19.7172131,19.6243478 19.8133607,18.9606957 C19.8370492,18.802087 19.805,18.4653913 19.8635246,18.304 C20.0572131,17.7836522 20.7567213,16.9474783 21.2667213,16.3255652 C21.5119672,16.0292174 21.3057377,15.5172174 20.8584426,14.9996522 C20.4153279,14.4834783 19.0831967,12.6622609 19.0831967,9.65982609 C19.0831967,8.46886957 19.5040164,8.52869565 19.7994262,9.33982609 C20.0962295,10.1537391 21.3628689,13.6932174 25.1516393,14.7046957 C28.7021311,15.6521739 31.0389344,14.6267826 32.3236885,13.6932174 L32.3236885,13.6932174 Z M59.9333607,25.7071304 C59.9152459,25.9033043 59.9835246,27.1081739 59.780082,29.2118261 C59.6504918,30.5182609 59.317459,31.52 59.5181148,32.5286957 C59.7131967,33.5387826 60.2440984,36.7610435 60.4809836,37.0615652 C60.6913934,37.3161739 60.9937705,37.1297391 60.9881967,36.8834783 C60.9868033,36.7053913 61.3114754,28.096 60.5492623,25.9533913 C60.2914754,25.2382609 59.9807377,25.1923478 59.9333607,25.7071304 Z" id="Shape" fill="#004F93" fill-rule="nonzero"></path>
                        <path d="M42.9514754,62.674087 L42.9514754,56.8473043 C42.9514754,55.8553043 42.9333607,54.066087 39.5403279,54.066087 C38.2527869,54.066087 37.3735246,54.317913 36.9011475,54.4709565 C36.3270492,54.6546087 36.1389344,54.8730435 36.1389344,55.1624348 L36.1389344,62.6893913 C36.1389344,62.9787826 36.2239344,63.0107826 36.4622131,63.0107826 L37.289918,63.0107826 C37.5240164,63.0107826 37.6452459,62.9787826 37.6452459,62.674087 L37.6452459,55.7537391 C37.6452459,55.3627826 38.2848361,54.9787826 39.4720492,54.9787826 C41.4465574,54.9787826 41.4465574,56.242087 41.4465574,57.0365217 L41.4465574,62.674087 C41.4465574,62.9787826 41.5468852,63.0107826 41.82,63.0107826 L42.7508197,63.0107826 C42.9347541,62.9787826 42.9514754,62.8243478 42.9514754,62.674087" id="Path" fill="#004F93"></path>
                        <path d="M51.9001639,58.674087 C51.9001639,56.6483478 51.255,55.3488696 50.2754098,54.6921739 C49.665082,54.2692174 48.8527049,54.066087 48.0737705,54.066087 C47.3004098,54.066087 46.4866393,54.2692174 45.8790984,54.6921739 C44.8995082,55.3488696 44.2585246,56.6483478 44.2585246,58.674087 C44.2585246,60.6831304 44.8995082,61.9812174 45.8790984,62.6393043 C46.4880328,63.0608696 47.3018033,63.2667826 48.0737705,63.2667826 C48.8527049,63.2667826 49.6664754,63.0608696 50.2754098,62.6393043 C51.255,61.9812174 51.9001639,60.6831304 51.9001639,58.674087 L51.9001639,58.674087 Z M50.3409016,58.674087 C50.3409016,60.2615652 50.0190164,61.2869565 49.5480328,61.7293913 C49.0909836,62.1690435 48.667377,62.285913 48.0737705,62.285913 C47.4843443,62.285913 47.0593443,62.1690435 46.6064754,61.7293913 C46.129918,61.2869565 45.8108197,60.2615652 45.8108197,58.674087 C45.8108197,57.0685217 46.129918,56.0431304 46.6064754,55.597913 C47.0593443,55.1624348 47.4843443,55.0441739 48.0737705,55.0441739 C48.667377,55.0441739 49.0895902,55.1624348 49.5480328,55.597913 C50.0190164,56.0431304 50.3409016,57.0685217 50.3409016,58.674087 Z" id="Shape" fill="#004F93" fill-rule="nonzero"></path>
                        <path d="M57.922623,54.9426087 C57.922623,54.3332174 56.8928689,54.066087 55.7265574,54.066087 C54.8138525,54.066087 54.2383607,54.2163478 53.7994262,54.3332174 C53.222541,54.4890435 53.0190984,54.738087 53.0190984,55.026087 L53.0190984,62.7241739 C53.0190984,62.9968696 53.1222131,63.0107826 53.3590984,63.0107826 L54.2202459,63.0107826 C54.4236885,63.0107826 54.5268033,62.9968696 54.5268033,62.7241739 L54.5268033,55.6702609 C54.5268033,55.2125217 54.8807377,54.9078261 55.3879508,54.9078261 C56.4706557,54.9078261 56.6364754,55.7050435 57.2147541,55.7050435 C57.604918,55.7050435 57.922623,55.4309565 57.922623,54.9426087" id="Path" fill="#004F93"></path>
                        <path d="M65.3608197,62.0827826 L65.3608197,51.4838261 C65.3608197,51.1791304 65.2758197,51.1415652 65.0236066,51.1415652 L64.1917213,51.1415652 C63.9088525,51.1415652 63.872623,51.245913 63.872623,51.5158261 L63.872623,54.5766957 C63.3459016,54.3012174 62.8233607,54.1161739 62.0277049,54.1161739 C59.4080328,54.1161739 58.0591803,56.5968696 58.0591803,58.674087 C58.0591803,61.7502609 59.7633607,63.2667826 62.3356557,63.2667826 C63.6009016,63.2667826 65.3608197,62.6393043 65.3608197,62.0827826 L65.3608197,62.0827826 Z M63.8740164,61.5930435 C63.8740164,62.034087 63.1633607,62.2678261 62.3844262,62.2678261 C60.7471311,62.2678261 59.5808197,60.9015652 59.5808197,58.5572174 C59.5808197,56.512 60.6955738,55.1443478 62.2506557,55.1443478 C63.1327049,55.1443478 63.5521311,55.4128696 63.8740164,55.6855652 L63.8740164,61.5930435 L63.8740164,61.5930435 Z" id="Shape" fill="#004F93" fill-rule="nonzero"></path>
                        <path d="M69.0283607,51.8372174 C69.0102459,51.3321739 68.6047541,50.989913 68.1337705,50.989913 C67.5931148,50.989913 67.2001639,51.3641739 67.2001639,51.8873043 C67.2001639,52.3603478 67.5415574,52.7624348 68.1114754,52.7624348 C68.692541,52.7624348 69.0436885,52.3074783 69.0283607,51.8372174 L69.0283607,51.8372174 Z M68.8611475,62.7088696 L68.8611475,54.5878261 C68.8611475,54.317913 68.7928689,54.2678261 68.5239344,54.2678261 L67.6446721,54.2678261 C67.357623,54.2678261 67.357623,54.3666087 67.357623,54.5878261 L67.357623,62.7088696 C67.357623,62.944 67.357623,63.0107826 67.6098361,63.0107826 L68.5239344,63.0107826 C68.7761475,63.0107826 68.8611475,62.9968696 68.8611475,62.7088696 Z" id="Shape" fill="#004F93" fill-rule="nonzero"></path>
                        <path d="M83.8601639,62.8243478 C83.8601639,62.7422609 83.81,62.6893913 83.7403279,62.6031304 L80.5312295,58.3693913 L80.5131148,58.3513043 C81.6320492,57.5262609 82.8095082,56.210087 83.5257377,54.7909565 C83.6065574,54.6226087 83.6190984,54.5544348 83.6190984,54.4528696 C83.6190984,54.3012174 83.5340984,54.2678261 83.3167213,54.2678261 L82.5210656,54.2678261 C82.220082,54.2678261 82.084918,54.2525217 81.9971311,54.5210435 C81.5247541,55.9693913 80.2748361,57.5262609 79.0068033,58.2664348 C78.9580328,58.3026087 78.939918,58.3513043 78.939918,58.3693913 C78.939918,58.4041739 78.9580328,58.4361739 78.9733607,58.4556522 L81.9831967,62.7589565 C82.1531967,63.0107826 82.220082,63.0107826 82.4862295,63.0107826 L83.6358197,63.0107826 C83.6929508,63.0107826 83.8601639,62.9968696 83.8601639,62.8243478 L83.8601639,62.8243478 Z M78.7002459,62.7589565 L78.7002459,51.3321739 C78.7002459,51.0914783 78.5845902,51.0914783 78.3797541,51.0914783 L77.4865574,51.0914783 C77.2998361,51.0914783 77.1981148,51.1262609 77.1981148,51.3641739 L77.1981148,62.7422609 C77.1981148,62.9787826 77.2496721,63.0107826 77.4865574,63.0107826 L78.3797541,63.0107826 C78.6180328,63.0107826 78.7002459,63.0107826 78.7002459,62.7589565 Z" id="Shape" fill="#004F93" fill-rule="nonzero"></path>
                        <path d="M76.0122951,60.6497391 C76.0122951,57.8114783 71.8514754,58.2525217 71.8514754,56.3784348 C71.8514754,55.7370435 72.3586885,55.0761739 73.3034426,55.0761739 C74.2872131,55.0761739 74.5436066,55.7203478 75.0452459,55.7203478 C75.3016393,55.7203478 75.6555738,55.5686957 75.6555738,55.1276522 C75.6555738,54.4890435 74.557541,54.1161739 73.3912295,54.1161739 C71.8514754,54.1161739 70.502623,54.9426087 70.502623,56.512 C70.502623,57.9631304 71.532377,58.5892174 72.7655738,59.1109565 C73.7479508,59.52 74.6578689,59.8886957 74.6578689,60.818087 C74.6578689,61.5109565 74.0990984,62.3026087 72.9188525,62.3026087 C71.7330328,62.3026087 71.3930328,61.4246957 70.8203279,61.4246957 C70.5346721,61.4246957 70.1751639,61.5429565 70.1751639,61.9812174 C70.1751639,62.674087 71.532377,63.2667826 72.8993443,63.2667826 C74.4209836,63.2667826 76.0122951,62.4570435 76.0122951,60.6497391" id="Path" fill="#004F93"></path>
                        <path d="M6.8097541,62.674087 L6.8097541,56.8473043 C6.8097541,55.8553043 6.79163934,54.066087 3.39442623,54.066087 C2.10967213,54.066087 1.23040984,54.317913 0.756639344,54.4709565 C0.182540984,54.6546087 0,54.8730435 0,55.1624348 L0,62.6893913 C0,62.9787826 0.0822131148,63.0107826 0.319098361,63.0107826 L1.14680328,63.0107826 C1.38368852,63.0107826 1.50631148,62.9787826 1.50631148,62.674087 L1.50631148,55.7537391 C1.50631148,55.3627826 2.14729508,54.9787826 3.32893443,54.9787826 C5.30344262,54.9787826 5.30344262,56.242087 5.30344262,57.0365217 L5.30344262,62.674087 C5.30344262,62.9787826 5.40934426,63.0107826 5.67967213,63.0107826 L6.6104918,63.0107826 C6.79163934,62.9787826 6.8097541,62.8243478 6.8097541,62.674087" id="Path" fill="#004F93"></path>
                        <path d="M15.7556557,58.674087 C15.7556557,56.6483478 15.1118852,55.3488696 14.1336885,54.6921739 C13.5233607,54.2692174 12.712377,54.066087 11.9320492,54.066087 C11.1559016,54.066087 10.3463115,54.2692174 9.73737705,54.6921739 C8.75639344,55.3488696 8.11680328,56.6483478 8.11680328,58.674087 C8.11680328,60.6831304 8.75639344,61.9812174 9.73737705,62.6393043 C10.3477049,63.0608696 11.1572951,63.2667826 11.9320492,63.2667826 C12.7137705,63.2667826 13.5247541,63.0608696 14.1336885,62.6393043 C15.1118852,61.9812174 15.7556557,60.6831304 15.7556557,58.674087 L15.7556557,58.674087 Z M14.1991803,58.674087 C14.1991803,60.2615652 13.8786885,61.2869565 13.404918,61.7293913 C12.9478689,62.1690435 12.5256557,62.285913 11.9306557,62.285913 C11.342623,62.285913 10.9190164,62.1690435 10.4605738,61.7293913 C9.98959016,61.2869565 9.66909836,60.2615652 9.66909836,58.674087 C9.66909836,57.0685217 9.98959016,56.0431304 10.4605738,55.597913 C10.9190164,55.1624348 11.342623,55.0441739 11.9306557,55.0441739 C12.5256557,55.0441739 12.9464754,55.1624348 13.404918,55.597913 C13.8786885,56.0431304 14.1991803,57.0685217 14.1991803,58.674087 Z" id="Shape" fill="#004F93" fill-rule="nonzero"></path>
                        <path d="M31.1963934,58.674087 C31.1963934,56.6483478 30.5554098,55.3488696 29.5730328,54.6921739 C28.9654918,54.2692174 28.1559016,54.066087 27.3755738,54.066087 C26.5980328,54.066087 25.7870492,54.2692174 25.1781148,54.6921739 C24.2013115,55.3488696 23.5561475,56.6483478 23.5561475,58.674087 C23.5561475,60.6831304 24.2013115,61.9812174 25.1781148,62.6393043 C25.7884426,63.0608696 26.5994262,63.2667826 27.3755738,63.2667826 C28.1572951,63.2667826 28.9668852,63.0608696 29.5730328,62.6393043 C30.5554098,61.9812174 31.1963934,60.6831304 31.1963934,58.674087 L31.1963934,58.674087 Z M29.6427049,58.674087 C29.6427049,60.2615652 29.3222131,61.2869565 28.8470492,61.7293913 C28.3886066,62.1690435 27.9663934,62.285913 27.3741803,62.285913 C26.7847541,62.285913 26.3611475,62.1690435 25.9027049,61.7293913 C25.4303279,61.2869565 25.1098361,60.2615652 25.1098361,58.674087 C25.1098361,57.0685217 25.4303279,56.0431304 25.9027049,55.597913 C26.3611475,55.1624348 26.7847541,55.0441739 27.3741803,55.0441739 C27.9663934,55.0441739 28.3886066,55.1624348 28.8470492,55.597913 C29.3222131,56.0431304 29.6427049,57.0685217 29.6427049,58.674087 Z" id="Shape" fill="#004F93" fill-rule="nonzero"></path>
                        <path d="M23.4168033,54.4403478 C23.4168033,54.2678261 23.2816393,54.2678261 23.1966393,54.2678261 L22.3536066,54.2678261 C22.2337705,54.2831304 22.2003279,54.3332174 22.1501639,54.5043478 L19.9527049,60.9335652 L17.667459,54.5391304 C17.5838525,54.3012174 17.5504098,54.2678261 17.2968033,54.2678261 L16.2670492,54.2678261 C16.197377,54.2678261 16.0301639,54.2678261 16.0301639,54.4709565 C16.0301639,54.5391304 16.0594262,54.6226087 16.0970492,54.7074783 L19.1556557,62.7422609 C19.2406557,62.944 19.2754918,62.9968696 19.4078689,63.0107826 L20.0697541,63.0107826 C20.2718033,63.0107826 20.3066393,62.9968696 20.3916393,62.7589565 L23.3485246,54.7074783 C23.4168033,54.5043478 23.4168033,54.4709565 23.4168033,54.4403478" id="Path" fill="#004F93"></path>
                        <path d="M20.9866393,6.82713043 C20.9866393,3.05669565 24.0480328,0 27.8228689,0 C31.5990984,0 34.6590984,3.05669565 34.6590984,6.82713043 C34.6590984,10.5961739 31.5990984,13.6528696 27.8228689,13.6528696 C24.0480328,13.6528696 20.9866393,10.5961739 20.9866393,6.82713043" id="Path" fill="#004F93"></path>
                        <path d="M23.4878689,6.02295652 C23.4878689,3.48521739 25.5487705,1.42747826 28.0931967,1.42747826 C30.6320492,1.42747826 32.6929508,3.48521739 32.6929508,6.02295652 C32.6929508,8.56069565 30.6320492,10.6184348 28.0931967,10.6184348 C25.5501639,10.6184348 23.4878689,8.56069565 23.4878689,6.02295652" id="Path" fill="#00AAD9"></path>
                        <path d="M41.3810656,23.5533913 C41.3002459,22.9328696 41.1901639,22.4806957 42.2185246,22.5321739 C43.6008197,22.5975652 44.2780328,22.669913 45.1238525,22.6601739 C46.1522131,22.6490435 47.3436066,22.6212174 47.7964754,22.5822609 C48.6144262,22.509913 49.1369672,22.7533913 49.4045082,23.3947826 C49.6636885,24.0153043 50.5889344,26.5697391 49.0617213,27.2834783 C47.1053279,28.1975652 44.2654918,28.3144348 42.8595082,27.9012174 C42.3355738,27.7481739 41.492541,27.5492174 41.505082,26.5015652 C41.5106557,26.1412174 41.5385246,24.7791304 41.3810656,23.5533913" id="Path" fill="#00AAD9"></path>
                        <path d="M53.3242623,22.912 C54.1101639,23.7815652 54.5769672,25.2104348 54.6745082,25.8281739 C54.7748361,26.4403478 55.6067213,26.2038261 55.7098361,25.6292174 C55.8631148,24.7749565 55.5913934,23.3627826 54.9615574,22.605913 C54.6717213,22.2553043 54.1756557,22.1008696 53.597377,22.2107826 C53.0511475,22.3151304 52.9020492,22.4431304 53.3242623,22.912" id="Path" fill="#00AAD9"></path>
                        <path d="M41.675082,32.0125217 C41.2542623,32.1516522 37.7093443,33.1533913 37.6438525,36.7930435 C37.6243443,37.8713043 37.3205738,37.7669565 36.8161475,37.3843478 C35.0701639,36.0431304 33.2670492,34.7881739 30.8494262,33.3551304 C29.6956557,32.6692174 28.6951639,31.7078261 28.330082,31.0650435 C27.7420492,30.0382609 26.945,28.461913 27.8451639,26.0313043 C28.2896721,24.8306087 29.2121311,22.9426087 29.9116393,21.9102609 C31.0556557,20.224 30.94,20.2031304 33.1541803,20.9154783 C35.1384426,21.5554783 35.0353279,21.7975652 35.0631967,22.7714783 C35.0980328,24.045913 34.9363934,25.202087 34.6702459,26.3763478 C34.5281148,26.994087 34.9294262,27.693913 35.6902459,27.7106087 C38.8087705,27.7982609 38.8728689,23.4810435 38.8756557,23.469913 C38.9397541,22.464 38.5593443,22.2636522 39.5598361,22.3582609 C40.3053279,22.4306087 40.4390984,23.0622609 40.5491803,24.2031304 C40.5868033,24.6205217 40.5603279,26.2497391 40.5603279,26.6921739 C40.5603279,27.136 40.6090984,28.2935652 42.1404918,28.7109565 C44.6681967,29.4038261 48.1908197,28.8528696 49.6344262,27.9986087 C50.4816393,27.4977391 51.025082,26.925913 50.9177869,25.709913 C50.8355738,24.8069565 50.5847541,23.6758261 50.4119672,23.2528696 C50.2238525,22.7826087 50.2572951,22.4556522 50.6502459,22.4027826 C52.555082,22.1481739 53.4092623,24.1238261 54.0613934,26.5377391 C54.267623,27.3196522 55.3545082,27.2695652 55.9063115,26.733913 C56.4427869,26.2121739 56.7521311,25.3843478 56.367541,23.8372174 C56.2407377,23.3307826 56.062377,22.9328696 55.9146721,22.6796522 C55.7781148,22.450087 55.7390984,22.2441739 56.2602459,22.2413913 C59.7327049,22.2191304 58.8590164,28.6427826 58.8186066,29.1923478 C58.7670492,29.8768696 58.48,31.3544348 58.3267213,32.0375652 C57.7136066,34.861913 56.2463115,33.7307826 55.785082,33.44 C54.3303279,32.5286957 52.6972131,31.8455652 50.4704918,31.6452174 C45.7439344,31.2208696 43.0810656,31.538087 41.675082,32.0125217" id="Path" fill="#00AAD9"></path>
                        <path d="M29.482459,19.5130435 C28.8958197,19.1554783 27.6681967,18.5266087 26.4572951,17.8198261 C24.2598361,16.5398261 23.1464754,15.8636522 22.3201639,16.5286957 C21.4562295,17.2243478 20.8027049,18.1718261 20.6842623,18.5043478 C20.5644262,18.8368696 20.617377,19.6410435 20.3233607,20.0027826 C20.1059836,20.2713043 19.7813115,20.7874783 19.3270492,21.3412174 C18.6986066,22.1064348 19.1556557,22.3513043 19.8245082,23.1554783 C20.4557377,23.9095652 21.8868033,23.1262609 23.4892623,24.3923478 C24.297459,25.0281739 24.5859016,25.5248696 25.6351639,27.168 C25.984918,27.7175652 26.1981148,27.3947826 26.4851639,26.6434783 C26.8878689,25.6013913 28.2604098,22.6852174 29.3027049,21.0921739 C29.652459,20.5606957 30.1401639,19.9165217 29.482459,19.5130435 L29.482459,19.5130435 Z M21.9606557,19.2027826 C21.3057377,18.0911304 23.7010656,17.778087 23.8153279,18.1217391 C23.9309836,18.464 22.6169672,20.3158261 21.9606557,19.2027826 Z" id="Shape" fill="#00AAD9" fill-rule="nonzero"></path>
                        <path d="M36.0511475,22.3846957 C36.2211475,24.3756522 35.6763115,25.952 35.6832787,26.2566957 C35.6930328,26.6629565 36.197459,26.7714783 36.5945902,26.5516522 C37.3108197,26.1565217 37.8528689,24.7958261 37.8110656,22.706087 C37.8013115,22.1968696 37.8263934,21.9686957 36.9582787,21.8295652 C36.1277869,21.6932174 35.9954098,21.7293913 36.0511475,22.3846957" id="Path" fill="#00AAD9"></path>
                    </g>
                </g>
            </g>
        </g>
    </g>
</svg>