<svg width="30" height="30" viewBox="0 0 30 30" xmlns="http://www.w3.org/2000/svg"><title>down-arrow-inside-a-circle</title><desc>Created with Sketch.</desc><path d="M14.283 11.873l1.676 1.676h-6.238c-.825 0-1.495.67-1.495 1.495 0 .826.67 1.495 1.495 1.495h6.238l-1.676 1.677c-.584.584-.584 1.531 0 2.114.584.584 1.531.584 2.114 0l4.23-4.229v.001c.292-.292.438-.675.438-1.058 0-.191-.037-.383-.109-.562-.073-.18-.182-.349-.328-.495l-4.23-4.229c-.584-.584-1.531-.584-2.114 0-.586.583-.586 1.531-.001 2.114zm-12.277-4.305c-4.129 7.152-1.679 16.297 5.473 20.426 7.151 4.129 16.297 1.679 20.426-5.473 4.128-7.151 1.678-16.297-5.473-20.426-7.152-4.13-16.297-1.678-20.427 5.473zm18.931-2.883c5.721 3.304 7.681 10.619 4.377 16.34-3.303 5.721-10.618 7.682-16.34 4.379-5.722-3.303-7.682-10.619-4.378-16.341 3.302-5.721 10.619-7.682 16.341-4.378z" fill="#fff" fill-rule="nonzero"/></svg>