<svg width="115" height="115" viewBox="0 0 115 115" xmlns="http://www.w3.org/2000/svg"><title>Group 17</title><desc>Created with Sketch.</desc><g transform="translate(-942 -1971) translate(942 1971)" fill="none"><circle fill="#F7F7F7" fill-rule="nonzero" cx="57.5" cy="57.5" r="57.5"/><g><path fill="#444492" d="M97.386 87.257h2.363v-16.222h-2.363z"/><path d="M71.446 73.165l-1.154.109-1.209.382c-5.238 2.336-4.435 10.255 1.209 11.47l1.154.109 1.209-.109c5.891-1.146 6.255-9.585 1.154-11.47l-1.154-.382-1.209-.109zm0-2.239h.989l.824.109c9.207 2.357 8.458 15.176-.989 16.331h-1.649c-9.44-1.381-10.172-13.961-.824-16.331l.824-.109h.824z" fill="#444492"/><path d="M21.27 72.946h-.605l-.44.109-.495.218-.495.382-.22.328-.22.492-.11.437v.601l.11.328.11.492.33.382.385.218 1.044.437 3.297 1.202.714.328.495.382.605.71.44.71c2.275 6.424-7.107 9.422-10.057 3.878l-.33-.983-.11-1.038h2.253l.11.71.22.601.385.437.33.492.495.218.44.218.605.164h1.209l.44-.164.605-.218.495-.218c1.22-1.416 1.392-3.051-.385-4.096l-.934-.492-1.319-.328-1.429-.492-1.044-.601-.824-.601-.605-.655-.33-.983-.165-1.038.165-.929.22-.929.495-.819.55-.601.714-.601c2.084-1.4 5.078-.971 6.76 1.038l.605.71.33.929.11.983h-2.363l-.11-.601c-.209-.929-1.067-1.578-1.978-1.748h-.495" fill="#444492"/><path fill="#444492" d="M85.405 71.035h7.694v2.239h-6.98v5.189h6.98v2.239h-6.98v6.554h-2.363v-14.583l.11-.71.385-.437.495-.382.659-.109"/><path fill="#444492" d="M48.969 74.803v12.453h-2.363v-14.693l.11-.71.385-.437.44-.382.714-.109h.385l.44.218.22.273.385.328 7.089 11.743.11-12.453h2.363v14.693l-.11.71-.33.492-.605.328-.605.109h-.44l-.385-.109-.33-.218-.275-.382-7.199-11.852"/><path d="M35.834 74.093l-2.363 6.445h4.836l-2.473-6.445zm-3.188 8.575l-1.649 4.588h-2.528l5.825-15.293.22-.437.385-.382.44-.109.495-.109.495.109.44.109.385.382.22.437 5.77 15.293h-2.473l-1.649-4.588h-6.375z" fill="#444492"/><path d="M77.986 35.586l-1.319-1.639-.605-.71-.714-.601c-3.072-2.635-7.216-1.965-10.772-.819l-2.803.819-1.429.382c-3.868.783-7.928.357-9.508-3.769l-.22-1.092-.11-1.038.22-1.038.385-1.092c1.471-3.644 7.044-4.565 10.497-3.605l1.704.328 1.539.492c4.714 1.545 8.461 4.762 11.101 8.903l.824 1.42 1.209 3.059" fill="#BCA36A"/><path d="M78.206 36.187l.22 1.256.385 1.42c.892 7.041-1.808 14.46-7.474 18.898l-1.649 1.311-1.649.929c-6.25 3.499-14.326 3.406-20.499-.218l-1.429-.929-1.429-1.092 1.099.382 1.154.218c5.625.875 10.402-.724 13.739-5.407l1.319-2.13 1.044-2.076c2.62-5.832 4.538-12.264 11.981-12.836h1.539l1.649.273" fill="#444492"/><path d="M50.397 56.123l-1.099.492c-8.625 2.151-12.804-9.52-12.145-16.113l.11-1.147.824 1.038.934.929c3.881 4.035 7.425 3.733 11.981 6.227l.44.492.385.437c1.647 2.071 1.288 4.913-.385 6.827l-.605.382-.44.437" fill="#ACB317"/></g></g></svg>