<svg width="120" height="120" viewBox="0 0 120 120" xmlns="http://www.w3.org/2000/svg"><title>Asset 2</title><desc>Created with Sketch.</desc><g transform="translate(-660 -78) translate(660 78)" fill="none"><ellipse fill="#fff" cx="60.057" cy="59.914" rx="59.771" ry="59.914"/><path d="M14.411 98.589l-.257-.304.257.304zM2.126 74.715l-.174-.719c.049.241.114.481.174.719zM7.317 88.127l-.286-.541.286.541zM1.783 73.289l-.16-.736c.051.246.091.493.16.736zM1.2 70.399l-.129-.77c.043.252.071.513.129.77zM2.503 76.127l-.191-.702.191.702zM10.217 92.99c-.1-.149-.197-.286-.286-.447l.286.447zM15.317 99.637l-.24-.269.24.269zM5.429 84.278l-.26-.599c.094.2.18.401.26.599zM6.663 86.861l-.286-.573.286.573zM11.823 95.298l-.286-.395.286.395zM4.334 81.623l-.243-.636.243.636zM4.871 82.96l-.251-.619.251.619zM6.034 85.578l-.269-.573.269.573zM11.009 94.156l-.286-.424.286.424zM2.911 77.525l-.203-.687c.066.229.149.458.203.687zM3.354 78.908l-.217-.67.217.67zM13.526 97.515l-.286-.335.286.335zM12.663 96.418l-.286-.367.286.367zM3.829 80.274l-.229-.653.229.653zM1.474 71.851l-.146-.753.146.753zM.306 61.443c-.02-.51-.02-1.014-.02-1.529 0 .516 0 1.02.02 1.529zM9.451 91.804l-.286-.473.286.473zM18.143 102.621l-.143-.137.143.137zM119.806 61.575v.043-.043zM20.086 104.457l-.02-.017.02.017zM8.714 90.599l-.286-.495.286.495zM19.111 103.558l-.091-.086.091.086zM.457 64.471l-.057-.894.057.894zM8 89.373l-.286-.518.286.518zM.589 65.968l-.074-.842.074.842zM.96 68.936l-.111-.793.111.793zM16.24 100.66l-.211-.229.211.229zM.757 67.458l-.094-.813.094.813zM.363 62.961l-.04-1.005.04 1.005zM17.183 101.653l-.18-.183.18.183zM60.057 119.828h-1.22 1.22zM9.157 91.332l-.443-.733.443.733zM9.923 92.543l-.471-.739.471.739zM10.714 93.732l-.497-.742.497.742zM18 102.484c-.286-.286-.546-.55-.817-.831.271.281.531.556.817.831zM11.534 94.903l-.526-.747.526.747zM17.003 101.47l-.763-.811.763.811zM20.066 104.44c-.32-.286-.64-.573-.954-.882.317.298.634.593.954.882zM19.02 103.472l-.877-.859c.289.295.583.581.877.859zM16.029 100.431c-.24-.261-.477-.527-.711-.793.234.266.471.533.711.793zM15.077 99.379l-.666-.779c.22.249.446.51.666.779zM13.254 97.18l-.591-.762.591.762zM12.383 96.052l-.571-.753.571.753zM14.154 98.285l-.629-.77.629.77zM.514 65.126l-.057-.656.057.656zM1.951 73.996l-.169-.707.169.707zM1.071 69.629l-.111-.693.111.693zM.663 66.644l-.074-.676.074.676zM8.42 90.103l-.417-.73.417.73zM1.623 72.553l-.149-.702.149.702zM1.329 71.098l-.129-.699.129.699zM.4 63.58l-.037-.616.037.616zM20.086 104.457c10.65 9.63 24.411 15.083 38.751 15.357l-1.063-.034c-13.968-.514-27.31-5.938-37.689-15.322zM.323 61.956c0-.172 0-.341-.017-.513l.017.513zM119.829 59.914c0 .573 0 1.114-.023 1.667.014-.553.023-1.108.023-1.667zM119.803 61.624c-.013.544-.036 1.085-.069 1.624.032-.542.055-1.084.069-1.624zM.857 68.142l-.091-.684c.02.229.051.455.091.684zM6.383 86.303l-.349-.725.349.725zM5.766 85l-.329-.722.329.722zM7.034 87.586l-.371-.725.371.725zM5.177 83.679l-.306-.719.306.719zM7.714 88.854l-.394-.727.394.727zM2.709 76.837l-.206-.71.206.71zM3.143 78.238l-.226-.713c.069.238.143.475.226.713zM2.311 75.425l-.186-.71.186.71zM4.091 80.99l-.263-.716c.086.241.171.49.263.716zM4.62 82.342l-.286-.716.286.716zM3.6 79.618l-.246-.713c.074.241.163.478.246.713zM119.463 66.53l-41.209-41.307-1.374 14.32-.129-.129-16.697 22.912 19.714 20.749-29.143-1.97-14.154 17.324 21.3 21.348 1.063.034h1.22c30.783.017 56.123-23.295 59.409-53.281z" id="Path" fill="#ddd"/><path d="M102.471 69.021c-.749-1.038-2.098-1.446-3.294-.997l-.051.02-20.214 6.745c.009.164.009.329 0 .493-.163 2.581-2.165 4.665-4.731 4.926l-12.18 1.272c-.75.045-1.402-.511-1.479-1.26-.077-.749.45-1.426 1.193-1.535l12.183-1.269c1.287-.129 2.259-1.227 2.235-2.524-.025-1.296-1.038-2.356-2.329-2.437l-16.174-1.057c-1.814-.119-3.625.285-5.217 1.166l-21.331 11.774 5.777 11.676 5.357-4.685c2.27-1.991 5.312-2.854 8.286-2.351l17.911 2.984c3.262.431 6.566-.399 9.24-2.32l24.386-16.834c1.09-.964 1.278-2.599.434-3.786z" id="Path" fill="#E2B282"/><path d="M74.311 77.327c1.15-.341 1.893-1.458 1.764-2.653-.128-1.195-1.091-2.128-2.287-2.216l-4.334-.235M82.726 86.148l19.311-13.332c1.03-.902 1.268-2.414.566-3.59-.702-1.176-2.143-1.681-3.423-1.199l-.051.02-20.214 6.745c.009.164.009.329 0 .493-.111 1.733-1.062 3.302-2.546 4.199" id="Path" fill="#A56D4C"/><path d="M58.817 61.673c.279.411.743.658 1.239.658.496 0 .96-.246 1.239-.658 4.737-7.005 21.429-15.7 21.429-26.961 0-7.764-5.074-11.361-11.334-11.361-6.259.002-11.331 5.088-11.331 11.361 0-6.275-5.075-11.361-11.334-11.361-6.26 0-11.334 3.597-11.334 11.361 0 11.261 16.694 19.959 21.429 26.961z" id="Path" fill="#C42132"/><path d="M71.391 23.35c-6.26 0-11.334 5.087-11.334 11.361v-.08 27.697c.498.003.964-.243 1.243-.656 4.734-7.002 21.429-15.7 21.429-26.961-.003-7.764-5.077-11.361-11.337-11.361z" id="Path" fill="#93001C"/><path fill="#5822A0" d="M26.55 83.939l9.303-6.367 9.893 14.523-9.303 6.367z"/><path fill="#8033D3" d="M26.551 83.94l4.957 7.269 9.154-6.581-4.814-7.057z"/></g></svg>