<svg width="115" height="115" viewBox="0 0 115 115" xmlns="http://www.w3.org/2000/svg"><title>Group 16</title><desc>Created with Sketch.</desc><g transform="translate(-656 -1971) translate(656 1971)" fill="none"><circle fill="#F7F7F7" fill-rule="nonzero" cx="57.5" cy="57.5" r="57.5"/><g><path d="M47.324 34.693c.411-.273.711-.515.874-.646.785-.636 1.051-.273.344.871-.924 1.496-2.406 2.433-4.179 3.317-.357.178-.771.345.04.728.681.321 2.359 1.003 3.84 1.421.853.241 6.613 2.244 12.092 2.223 3.978-.015 7.544-.527 9.592-.7 1.538-.128 4.883-.423 6.546 2.561 1.391 2.495 1.097 10.29 1.169 12.064.05 1.28 0 11.688-.01 12.601-.008.615-.053 1.085-.513 1.137-.419.046-1.622.026-1.842.026l-.964-.01c-.676 0-.662.316-.662.498 0 .385.145.815-.726.846-.599.018-2.526 0-2.776 0-.422 0-.654-.518-.283-1.183 3.537-6.376 3.282-11.226 1.194-13.938-.145.498-.276.909-.38 1.469-.273 1.478-.577 2.129-.902 2.389-3.711 2.995-5.494 7.428-6.358 9.736-.183.483-.539.302-.701.515-.268.344.307.971-.789 1.007-.44.014-2.582.008-3.011.01-.503.003-.787-.615-.283-1.234 1.141-1.391 7.639-7.526 7.316-13.909-.014-.273-.196-1.629-.468-1.885-.06-.057-1.141-.995-3.482.931-.265.221-.3.138-.635-.051-.364-.205-3.198-1.223-5.267-.607-1.313.388-2.859 2.01-2.269 4.576.832 3.626 2.691 6.737 3.41 10.396.091.658-.368.491-.562.74-.266.345.3 1.028-.844 1.03-.358.003-2.889 0-2.889 0-.539.021-.828-.221-.474-1.345.106-.333.206-.886.337-2.058.121-1.081 0-2.209-.205-3.478-.669-4.149-2.928-6.189-4.812-7.417-1.274.808-3.328 7.061-3.911 11.261-.095.679-.109.836-.121 1.014-.081 1.052-.706.673-.883.971-.245.415.245 1.06-.896 1.06-1.363 0-2.093.008-2.721.001-.553-.006-.637-.611-.226-1.348 1.728-3.101 4.448-7.89 4.396-13.059-.003-.598.001-2.375-.826-3.36-1.856-2.215-2.897-4.878-3.849-6.584-.659-1.177-1.622-1.45-2.257-1.65-.634-.198-1.175.083-1.887-.319-.198-.11-.711-.794-1.187-1.318-.396-.435-.681-1.064-.213-1.656.824-1.038 1.505-1.715 1.601-2.379.024-.159-.008-.495.05-.657.194-.52.893-1.357 1.403-1.978.245-.296.039-.808-.408-1.326-.443-.516-1.775-2.337-1.775-5.34 0-1.191.421-1.131.716-.32.297.814 1.563 4.353 5.352 5.365 3.55.947 5.887-.078 7.172-1.011zm27.61 12.014c-.018.196.05 1.401-.153 3.505-.13 1.306-.463 2.308-.262 3.317.195 1.01.726 4.232.963 4.533.21.255.513.068.507-.178-.001-.178.323-8.787-.439-10.93-.258-.715-.569-.761-.616-.246z" id="Shape" fill="#004F93" fill-rule="nonzero"/><path d="M57.951 83.674v-5.827c0-.992-.018-2.781-3.411-2.781-1.288 0-2.167.252-2.639.405-.574.184-.762.402-.762.691v7.527c0 .289.085.321.323.321h.828c.234 0 .355-.032.355-.337v-6.92c0-.391.64-.775 1.827-.775 1.975 0 1.975 1.263 1.975 2.058v5.638c0 .305.1.337.373.337h.931c.184-.032.201-.186.201-.337" id="Path" fill="#004F93"/><path d="M66.9 79.674c0-2.026-.645-3.325-1.625-3.982-.61-.423-1.423-.626-2.202-.626-.773 0-1.587.203-2.195.626-.98.657-1.621 1.956-1.621 3.982 0 2.009.641 3.307 1.621 3.965.609.422 1.423.627 2.195.627.779 0 1.593-.206 2.202-.627.98-.658 1.625-1.956 1.625-3.965zm-1.559 0c0 1.587-.322 2.613-.793 3.055-.457.44-.881.557-1.474.557-.589 0-1.014-.117-1.467-.557-.477-.442-.796-1.468-.796-3.055 0-1.606.319-2.631.796-3.076.453-.435.878-.554 1.467-.554.594 0 1.016.118 1.474.554.471.445.793 1.471.793 3.076z" id="Shape" fill="#004F93" fill-rule="nonzero"/><path d="M72.923 75.943c0-.609-1.03-.877-2.196-.877-.913 0-1.488.15-1.927.267-.577.156-.78.405-.78.693v7.698c0 .273.103.287.34.287h.861c.203 0 .307-.014.307-.287v-7.054c0-.458.354-.762.861-.762 1.083 0 1.249.797 1.827.797.39 0 .708-.274.708-.762" id="Path" fill="#004F93"/><path d="M80.361 83.083v-10.599c0-.305-.085-.342-.337-.342h-.832c-.283 0-.319.104-.319.374v3.061c-.527-.275-1.049-.461-1.845-.461-2.62 0-3.969 2.481-3.969 4.558 0 3.076 1.704 4.593 4.276 4.593 1.265 0 3.025-.627 3.025-1.184zm-1.487-.49c0 .441-.711.675-1.49.675-1.637 0-2.804-1.366-2.804-3.711 0-2.045 1.115-3.413 2.67-3.413.882 0 1.301.269 1.623.541v5.907zM84.028 72.837c-.018-.505-.424-.847-.895-.847-.541 0-.934.374-.934.897 0 .473.341.875.911.875.581 0 .932-.455.917-.925zm-.167 10.872v-8.121c0-.27-.068-.32-.337-.32h-.879c-.287 0-.287.099-.287.32v8.121c0 .235 0 .302.252.302h.914c.252 0 .337-.014.337-.302zM98.86 83.824c0-.082-.05-.135-.12-.221l-3.209-4.234-.018-.018c1.119-.825 2.296-2.141 3.013-3.56.081-.168.093-.237.093-.338 0-.152-.085-.185-.302-.185h-.796c-.301 0-.436-.015-.524.253-.472 1.448-1.722 3.005-2.99 3.745l-.067.103.033.086 3.01 4.303c.17.252.237.252.503.252h1.15c.057 0 .224-.014.224-.186zm-5.16-.065v-11.427c0-.241-.116-.241-.32-.241h-.893c-.187 0-.288.035-.288.273v11.378c0 .237.052.269.288.269h.893c.238 0 .32 0 .32-.252z" id="Shape" fill="#004F93" fill-rule="nonzero"/><path d="M91.012 81.65c0-2.838-4.161-2.397-4.161-4.271 0-.641.507-1.302 1.452-1.302.984 0 1.24.644 1.742.644.256 0 .61-.152.61-.593 0-.639-1.098-1.011-2.264-1.011-1.54 0-2.889.826-2.889 2.396 0 1.451 1.03 2.077 2.263 2.599.982.409 1.892.778 1.892 1.707 0 .693-.559 1.485-1.739 1.485-1.186 0-1.526-.878-2.099-.878-.286 0-.645.118-.645.557 0 .693 1.357 1.286 2.724 1.286 1.522 0 3.113-.81 3.113-2.617M21.81 83.674v-5.827c0-.992-.018-2.781-3.415-2.781-1.285 0-2.164.252-2.638.405-.574.184-.757.402-.757.691v7.527c0 .289.082.321.319.321h.828c.237 0 .36-.032.36-.337v-6.92c0-.391.641-.775 1.823-.775 1.975 0 1.975 1.263 1.975 2.058v5.638c0 .305.106.337.376.337h.931c.181-.032.199-.186.199-.337" id="Path" fill="#004F93"/><path d="M30.756 79.674c0-2.026-.644-3.325-1.622-3.982-.61-.423-1.421-.626-2.202-.626-.776 0-1.586.203-2.195.626-.981.657-1.621 1.956-1.621 3.982 0 2.009.64 3.307 1.621 3.965.61.422 1.42.627 2.195.627.782 0 1.593-.206 2.202-.627.978-.658 1.622-1.956 1.622-3.965zm-1.556 0c0 1.587-.32 2.613-.794 3.055-.457.44-.879.557-1.474.557-.588 0-1.012-.117-1.47-.557-.471-.442-.791-1.468-.791-3.055 0-1.606.32-2.631.791-3.076.458-.435.882-.554 1.47-.554.595 0 1.016.118 1.474.554.474.445.794 1.471.794 3.076zM46.196 79.674c0-2.026-.641-3.325-1.623-3.982-.608-.423-1.417-.626-2.197-.626-.778 0-1.589.203-2.197.626-.977.657-1.622 1.956-1.622 3.982 0 2.009.645 3.307 1.622 3.965.61.422 1.421.627 2.197.627.782 0 1.591-.206 2.197-.627.982-.658 1.623-1.956 1.623-3.965zm-1.554 0c0 1.587-.32 2.613-.796 3.055-.458.44-.881.557-1.473.557-.589 0-1.013-.117-1.471-.557-.472-.442-.793-1.468-.793-3.055 0-1.606.32-2.631.793-3.076.458-.435.882-.554 1.471-.554.592 0 1.014.118 1.473.554.475.445.796 1.471.796 3.076z" id="Shape" fill="#004F93" fill-rule="nonzero"/><path d="M38.417 75.44c0-.173-.135-.173-.22-.173h-.843c-.12.015-.153.065-.203.237l-2.197 6.429-2.285-6.394c-.084-.238-.117-.271-.371-.271h-1.03c-.07 0-.237 0-.237.203 0 .068.029.152.067.237l3.059 8.035c.085.202.12.255.252.269h.662c.202 0 .237-.014.322-.252l2.957-8.051.068-.267M35.987 27.827c0-3.77 3.061-6.827 6.836-6.827 3.776 0 6.836 3.057 6.836 6.827 0 3.769-3.06 6.826-6.836 6.826-3.775 0-6.836-3.057-6.836-6.826" id="Path" fill="#004F93"/><path d="M38.488 27.023c0-2.538 2.061-4.595 4.605-4.595 2.539 0 4.6 2.058 4.6 4.595 0 2.538-2.061 4.595-4.6 4.595-2.543 0-4.605-2.058-4.605-4.595M56.381 44.553c-.081-.621-.191-1.073.837-1.021 1.382.065 2.06.138 2.905.128 1.028-.011 2.22-.039 2.673-.078.818-.072 1.34.171 1.608.813.259.621 1.184 3.175-.343 3.889-1.956.914-4.796 1.031-6.202.618-.524-.153-1.367-.352-1.354-1.4.006-.36.033-1.722-.124-2.948M68.324 43.912c.786.87 1.253 2.298 1.35 2.916.1.612.932.376 1.035-.199.153-.854-.118-2.266-.748-3.023-.29-.351-.786-.505-1.364-.395-.546.104-.695.232-.273.701M56.675 53.013c-.421.139-3.966 1.141-4.031 4.781-.02 1.078-.323.974-.828.591-1.746-1.341-3.549-2.596-5.967-4.029-1.154-.686-2.154-1.647-2.519-2.29-.588-1.027-1.385-2.603-.485-5.034.445-1.201 1.367-3.089 2.066-4.121 1.144-1.686 1.028-1.707 3.243-.995 1.984.64 1.881.882 1.909 1.856.035 1.274-.127 2.431-.393 3.605-.142.618.259 1.318 1.02 1.334 3.119.088 3.183-4.23 3.185-4.241.064-1.006-.316-1.206.684-1.112.745.072.879.704.989 1.845.038.417.011 2.047.011 2.489 0 .444.049 1.601 1.58 2.019 2.528.693 6.05.142 7.494-.712.847-.501 1.391-1.073 1.283-2.289-.082-.903-.333-2.034-.506-2.457-.188-.47-.155-.797.238-.85 1.905-.255 2.759 1.721 3.411 4.135.206.782 1.293.732 1.845.196.536-.522.846-1.35.461-2.897-.127-.506-.305-.904-.453-1.158-.137-.23-.176-.435.346-.438 3.472-.022 2.599 6.401 2.558 6.951-.052.685-.339 2.162-.492 2.845-.613 2.824-2.08 1.693-2.542 1.402-1.455-.911-3.088-1.594-5.315-1.795-4.727-.424-7.389-.107-8.795.367" id="Path" fill="#00AAD9"/><path d="M44.482 40.513c-.587-.358-1.814-.986-3.025-1.693-2.197-1.28-3.311-1.956-4.137-1.291-.864.696-1.517 1.643-1.636 1.976-.12.333-.067 1.137-.361 1.498-.217.269-.542.785-.996 1.338-.628.765-.171 1.01.497 1.814.631.754 2.062-.029 3.665 1.237.808.636 1.097 1.133 2.146 2.776.35.55.563.227.85-.525.403-1.042 1.775-3.958 2.818-5.551.35-.531.837-1.176.18-1.579zm-7.522-.31c-.655-1.112 1.74-1.425 1.855-1.081.116.342-1.198 2.194-1.855 1.081z" fill="#00AAD9" fill-rule="nonzero"/><path d="M51.051 43.385c.17 1.991-.375 3.567-.368 3.872.01.406.514.515.911.295.716-.395 1.258-1.756 1.216-3.846-.01-.509.015-.737-.853-.877-.83-.136-.963-.1-.907.555" fill="#00AAD9"/></g></g></svg>